<svg viewBox="0 0 38 33" fill="none" xmlns="http://www.w3.org/2000/svg">
<path d="M17.231 26.5221C17.4142 26.7061 17.5595 26.9246 17.6587 27.1653C17.7579 27.406 17.8089 27.664 17.8089 27.9246C17.8089 28.1852 17.7579 28.4432 17.6587 28.6839C17.5595 28.9246 17.4142 29.1431 17.231 29.3271L16.3925 30.1719C15.5024 31.072 14.4441 31.7854 13.2787 32.2708C12.1133 32.7562 10.8639 33.004 9.60287 33C7.70377 33.0006 5.84715 32.4336 4.2679 31.3709C2.68866 30.3081 1.45776 28.7973 0.730917 27.0295C0.00407816 25.2618 -0.186035 23.3166 0.18463 21.4399C0.555295 19.5633 1.47008 17.8396 2.81326 16.4869L8.50402 10.7532C9.71445 9.5338 11.2264 8.66255 12.8832 8.22962C14.5401 7.79669 16.2817 7.81782 17.9277 8.29083C19.5738 8.76383 21.0644 9.67152 22.2454 10.9199C23.4263 12.1683 24.2546 13.712 24.6445 15.3913C24.7091 15.6466 24.7224 15.9124 24.6838 16.173C24.6451 16.4335 24.5552 16.6837 24.4194 16.9089C24.2835 17.134 24.1044 17.3296 23.8926 17.4841C23.6807 17.6386 23.4404 17.7489 23.1857 17.8087C22.931 17.8684 22.6671 17.8763 22.4093 17.8319C22.1515 17.7876 21.9051 17.6918 21.6845 17.5503C21.464 17.4087 21.2737 17.2243 21.1247 17.0077C20.9758 16.7911 20.8713 16.5467 20.8174 16.2889C20.586 15.2976 20.096 14.3866 19.3982 13.65C18.7003 12.9135 17.8199 12.378 16.8478 12.0991C15.8758 11.8202 14.8475 11.808 13.8692 12.0636C12.8909 12.3192 11.9981 12.8335 11.2831 13.5532L5.59232 19.2869C4.79906 20.0855 4.25867 21.1032 4.03949 22.2112C3.8203 23.3193 3.93217 24.4679 4.36094 25.5119C4.78971 26.5559 5.51612 27.4483 6.44831 28.0763C7.3805 28.7043 8.47659 29.0397 9.59796 29.04C10.343 29.0421 11.0811 28.8953 11.7695 28.6081C12.458 28.321 13.083 27.8991 13.6085 27.3669L14.4453 26.5221C14.6279 26.3373 14.845 26.1906 15.084 26.0905C15.323 25.9904 15.5793 25.9389 15.8381 25.9389C16.097 25.9389 16.3533 25.9904 16.5923 26.0905C16.8313 26.1906 17.0484 26.3373 17.231 26.5221ZM35.1876 2.83325C33.3864 1.01912 30.9439 0 28.3971 0C25.8504 0 23.4078 1.01912 21.6067 2.83325L20.7699 3.6764C20.4007 4.04836 20.1933 4.55285 20.1933 5.07888C20.1933 5.60492 20.4007 6.10941 20.7699 6.48137C21.139 6.85334 21.6398 7.0623 22.1619 7.0623C22.684 7.0623 23.1847 6.85334 23.5538 6.48137L24.3923 5.63658C25.4564 4.56445 26.8996 3.96214 28.4045 3.96214C29.9094 3.96214 31.3526 4.56445 32.4167 5.63658C33.4808 6.70871 34.0786 8.16283 34.0786 9.67905C34.0786 11.1953 33.4808 12.6494 32.4167 13.7215L26.7161 19.447C26.1907 19.9793 25.5657 20.4013 24.8772 20.6885C24.1888 20.9756 23.4507 21.1223 22.7056 21.1201C21.4274 21.1191 20.187 20.6832 19.1855 19.883C18.1841 19.0827 17.4803 17.9651 17.1884 16.7113C17.0702 16.1997 16.7552 15.7564 16.3127 15.4788C15.8701 15.2013 15.3363 15.1122 14.8286 15.2312C14.3208 15.3503 13.8808 15.6676 13.6053 16.1135C13.3299 16.5594 13.2415 17.0973 13.3596 17.6089C13.8527 19.7322 15.0433 21.6254 16.7382 22.9815C18.4331 24.3377 20.533 25.0771 22.6974 25.08H22.7056C23.9672 25.0835 25.217 24.8349 26.3827 24.3486C27.5484 23.8624 28.6068 23.148 29.4968 22.247L35.1876 16.5133C36.0792 15.6151 36.7865 14.5488 37.2691 13.3751C37.7516 12.2015 38 10.9436 38 9.67327C38 8.40292 37.7516 7.14502 37.2691 5.9714C36.7865 4.79778 36.0792 3.73143 35.1876 2.83325Z" fill="currentColor"/>
</svg>
